HIERARCHY
ROOT Hips
{
	OFFSET -0.179506 -22.333345 2.821913
	CHANNELS 6 Xposition Yposition Zposition Zrotation Yrotation Xrotation 
	JOINT LeftUpLeg
	{
		OFFSET 6.951974 -9.140623 -0.681533
		CHANNELS 3 Zrotation Yrotation Xrotation
		JOINT LeftLeg
		{
			OFFSET 3.427654 -37.519855 -0.449580
			CHANNELS 3 Zrotation Yrotation Xrotation
			JOINT LeftFoot
			{
				OFFSET -1.359570 -39.796059 -4.369333
				CHANNELS 3 Zrotation Yrotation Xrotation
				JOINT LeftToe
				{
					OFFSET 2.635814 -5.579078 11.928840
					CHANNELS 3 Zrotation Yrotation Xrotation
					End Site
					{
						OFFSET 0.000000 0.000000 0.000000
					}
				}
			}
		}
	}
	JOINT RightUpLeg
	{
		OFFSET -6.767048 -9.052170 -0.431982
		CHANNELS 3 Zrotation Yrotation Xrotation
		JOINT RightLeg
		{
			OFFSET -3.829005 -38.256897 -0.885003
			CHANNELS 3 Zrotation Yrotation Xrotation
			JOINT RightFoot
			{
				OFFSET 1.577377 -39.841461 -4.231180
				CHANNELS 3 Zrotation Yrotation Xrotation
				JOINT RightToe
				{
					OFFSET -2.537174 -4.814398 12.334795
					CHANNELS 3 Zrotation Yrotation Xrotation
					End Site
					{
						OFFSET 0.000000 0.000000 0.000000
					}
				}
			}
		}
	}
	JOINT Spine
	{
		OFFSET -0.253288 10.896323 -2.669631
		CHANNELS 3 Zrotation Yrotation Xrotation
		JOINT Spine1
		{
			OFFSET 0.548704 13.518043 0.109247
			CHANNELS 3 Zrotation Yrotation Xrotation
			JOINT Spine2
			{
				OFFSET 0.145701 5.292222 2.542457
				CHANNELS 3 Zrotation Yrotation Xrotation
				JOINT Neck
				{
					OFFSET -0.277840 21.387037 -4.285703
					CHANNELS 3 Zrotation Yrotation Xrotation
					JOINT Head
					{
						OFFSET 0.515184 6.496960 5.134897
						CHANNELS 3 Zrotation Yrotation Xrotation
						End Site
						{
							OFFSET 0.000000 0.000000 0.000000
						}
					}
				}
				JOINT LeftShoulder
				{
					OFFSET 7.884473 12.174932 -3.408961
					CHANNELS 3 Zrotation Yrotation Xrotation
					JOINT LeftArm
					{
						OFFSET 9.097692 3.046888 -0.886815
						CHANNELS 3 Zrotation Yrotation Xrotation
						JOINT LeftForeArm
						{
							OFFSET 25.961220 -1.277207 -2.745643
							CHANNELS 3 Zrotation Yrotation Xrotation
							JOINT LeftHand
							{
								OFFSET 24.923361 0.898606 -0.117091
								CHANNELS 3 Zrotation Yrotation Xrotation
								End Site
								{
									OFFSET 0.000000 0.000000 0.000000
								}
							}
						}
					}
				}
				JOINT RightShoulder
				{
					OFFSET -8.175920 11.883285 -3.861528
					CHANNELS 3 Zrotation Yrotation Xrotation
					JOINT RightArm
					{
						OFFSET -9.601238 3.255117 -0.914307
						CHANNELS 3 Zrotation Yrotation Xrotation
						JOINT RightForeArm
						{
							OFFSET -25.374195 -1.332924 -2.140099
							CHANNELS 3 Zrotation Yrotation Xrotation
							JOINT RightHand
							{
								OFFSET -25.529810 0.777228 -0.555919
								CHANNELS 3 Zrotation Yrotation Xrotation
								End Site
								{
									OFFSET 0.000000 0.000000 0.000000
								}
							}
						}
					}
				}
			}
		}
	}
}
MOTION
Frames: 7
Frame Time: 0.033333
2.291205 116.941666 0.254928 178.995081 3.967823 177.837093 6.742379 1.786603 2.568726 0.593070 -11.025240 6.340541 -5.510896 13.289915 -1.014521 2.541355 0.205004 0.721142 -2.512456 -0.699333 -1.341664 1.441419 7.538974 12.009268 6.091474 -9.088258 1.024676 1.793096 -0.521855 0.451634 0.511672 -0.300647 5.548217 2.487755 -2.643580 -0.524429 2.308458 -1.593490 2.622319 -0.813815 2.383791 -5.839957 0.076914 2.610851 -3.798454 -18.096722 3.472993 0.459663 -50.376174 -5.495709 7.462252 1.571554 -12.246636 5.685409 0.012336 -3.968270 -4.248683 15.633673 0.280462 -1.788854 42.212331 5.145695 7.341905 -1.223168 7.877228 -1.903858 4.282731 0.302258 -3.635037 
2.900270 116.780457 0.349790 178.898867 4.246892 177.749110 6.954318 1.436270 2.050117 0.594263 -10.597220 7.606372 -5.638954 12.952206 -1.332966 2.629432 0.159863 0.737944 -2.215226 -0.800037 -1.494436 1.232246 6.453356 12.387404 5.814082 -7.977409 0.232256 1.855831 -0.519716 0.474742 0.505384 -0.175478 5.885662 2.261080 -2.508528 -0.692738 2.234475 -1.495810 2.773360 -0.819308 2.683511 -5.977372 0.110550 2.102443 -3.585171 -18.581102 3.652679 0.437792 -53.813466 -5.772284 8.875182 1.743160 -14.415041 7.148196 -0.506083 -4.082194 -4.404457 15.946325 0.571333 -1.734104 47.006524 4.807285 9.727575 -0.891126 9.458613 0.412256 5.066373 0.899156 -4.166164 
3.716129 116.641357 0.390960 178.758121 4.351146 177.560981 7.315587 1.194105 1.391717 0.514063 -10.314661 9.250355 -5.910380 12.456911 -1.401359 2.680786 0.164480 0.760283 -1.878998 -1.063489 -1.454130 1.132915 5.380925 12.725434 5.525830 -7.104301 -0.596449 1.935183 -0.541643 0.500226 0.631175 0.004611 6.317324 2.068082 -2.338585 -0.720582 2.105840 -1.332774 2.774311 -1.006287 2.790724 -6.079945 -0.022247 1.625002 -3.249531 -18.917550 3.576501 0.364569 -55.988346 -6.117326 9.918831 1.513455 -16.616233 8.572750 -0.836401 -4.296175 -4.227316 16.201705 1.126300 -1.696633 50.343439 4.396898 11.541868 -0.334233 11.291305 2.566867 5.958848 1.490193 -4.178481 
4.387412 116.524734 0.577962 178.661641 3.783864 177.260026 7.668405 0.787230 0.166958 0.305178 -10.156916 11.580614 -6.138068 11.940505 -1.536605 2.735411 0.125958 0.736958 -1.544874 -1.342581 -1.259203 1.088161 4.416403 12.982927 5.285799 -6.876266 -1.331592 1.934987 -0.547055 0.480491 0.767330 0.216202 6.758662 1.864168 -2.082899 -0.831187 2.115199 -1.229195 2.953236 -1.129533 2.679784 -6.140038 -0.084520 1.341071 -2.915322 -18.923652 3.436157 0.247331 -57.390782 -6.680261 10.584037 1.511680 -18.406733 8.906831 -0.544430 -4.342516 -5.017993 16.155638 1.755686 -1.721115 52.189612 4.555227 12.730388 0.148318 12.476534 4.006540 6.392010 1.658180 -4.248172 
4.976179 116.419083 0.856876 178.453459 2.941969 176.880066 7.849838 0.334684 -1.317619 0.000315 -9.924914 14.074101 -5.961619 11.671937 -2.186502 2.763114 0.065944 0.729863 -1.360265 -1.761980 -0.952289 0.989282 3.447626 13.099826 5.057322 -6.780710 -2.012389 1.950236 -0.492699 0.440275 0.919969 0.529245 7.520334 1.620235 -1.814638 -1.105816 2.104520 -1.041406 3.183221 -1.207651 2.667754 -6.125573 -0.234159 1.114339 -2.514893 -18.865248 3.178408 -0.006571 -57.816501 -7.213816 10.971940 1.468565 -20.114367 9.153840 0.203188 -4.616969 -5.522935 16.147584 2.415665 -1.803444 52.971133 4.962295 13.446665 0.530746 13.518878 4.896699 6.554568 1.643284 -4.088170 
5.520598 116.332855 1.020475 178.135729 1.598211 176.520805 7.892938 -0.087091 -2.976058 -0.455941 -9.491844 16.513798 -4.673258 11.599450 -5.215527 2.709711 -0.043427 0.714798 -1.267536 -2.302699 -0.393611 0.800360 2.530067 12.934772 4.869523 -7.009397 -2.654933 1.937681 -0.425139 0.384235 1.173512 0.880415 8.344584 1.376537 -1.499848 -1.488597 2.101826 -0.826837 3.473882 -1.256513 2.613360 -5.978746 -0.481306 0.706075 -2.097660 -18.799579 2.945462 -0.381919 -57.722893 -7.814261 10.969621 1.837368 -21.398256 8.795533 1.196811 -4.886346 -5.656999 16.250599 3.017263 -1.883560 52.615280 5.630043 13.538685 0.721344 13.787736 5.274208 6.237227 1.646652 -3.570083 
6.010206 116.272476 1.338156 177.887980 -0.251893 176.025336 7.903426 -0.236847 -4.860717 -1.062205 -8.814492 19.345741 -3.413071 11.571077 -8.304526 2.658851 -0.140722 0.607233 -1.208874 -3.093941 0.194565 0.688104 1.201916 12.895278 4.818633 -7.278262 -3.248872 1.844934 -0.338680 0.281466 1.536019 1.289300 9.440054 1.113177 -1.149657 -2.078241 2.103023 -0.539975 3.861145 -1.181064 2.412903 -5.833770 -0.691602 0.066046 -1.734857 -18.679016 2.866341 -0.881950 -57.059459 -8.328827 10.624046 2.320969 -22.685203 8.235151 2.236915 -5.205072 -5.615231 16.330552 3.559411 -2.007511 51.499420 6.454432 13.047277 0.793090 13.652434 5.401102 5.665734 1.575781 -2.600044 
